<svg width="64" height="64" viewBox="0 0 64 64" fill="none" xmlns="http://www.w3.org/2000/svg">
<g clip-path="url(#clip0_18_2)">
<circle cx="32" cy="32" r="32" fill="#1A1B26"/>
<path d="M36.0792 11.6194C37.1744 13.4543 38.2592 15.188 39.256 16.9668C39.6512 17.6718 40.1328 17.9015 40.956 17.8951C45.372 17.8613 49.7888 17.8806 54.2048 17.8935C54.7208 17.8951 55.236 17.9705 56 18.0324C55.6816 18.6403 55.4896 19.0522 55.2576 19.4425C53.08 23.1003 50.928 26.7734 48.6872 30.3958C48.1512 31.2615 48.188 31.8814 48.7088 32.7254C50.9224 36.3142 53.0584 39.9455 55.2168 43.5647C55.4552 43.9646 55.6512 44.387 55.9808 45.0174C55.2864 45.0809 54.7848 45.1652 54.2824 45.1668C49.8664 45.1836 45.4496 45.2101 41.0336 45.1724C40.1528 45.1644 39.6656 45.4109 39.2312 46.1561C37.2208 49.6083 35.1432 53.0244 33.0808 56.4485C32.7984 56.9167 32.4648 57.3568 32.0256 58C31.6056 57.4218 31.2808 57.0364 31.0256 56.614C28.9176 53.116 26.8 49.6228 24.7416 46.0983C24.332 45.3972 23.8672 45.1676 23.0464 45.1732C18.6304 45.2045 14.2136 45.1796 9.7976 45.174C9.3144 45.1732 8.8312 45.174 8.0536 45.174C8.3352 44.5388 8.4736 44.1188 8.696 43.7446C10.9144 40.0105 13.1216 36.2692 15.3968 32.5664C15.8752 31.7883 15.8312 31.227 15.368 30.4729C13.1624 26.8802 11.0192 23.2521 8.8584 19.6344C8.5976 19.1976 8.364 18.7455 8 18.0878C8.712 18.0043 9.2128 17.8975 9.7128 17.8951C13.9936 17.8782 18.276 17.826 22.5552 17.9111C23.8296 17.936 24.4584 17.5016 25.044 16.4825C26.9896 13.0945 29.0424 9.76277 31.0632 6.41494C31.2976 6.02707 31.5936 5.67294 32.0792 5C33.4992 7.34887 34.7664 9.44236 36.0792 11.6194ZM34.704 21.0646C37.5752 25.8555 40.4464 30.6472 43.4288 35.622C46.6576 30.2256 49.7608 25.038 52.92 19.7589C46.504 19.7589 40.3008 19.7589 33.9608 19.7589C34.2304 20.2359 34.42 20.5692 34.704 21.0646ZM22.656 19.6529C18.8584 19.6529 15.06 19.6529 11.0224 19.6529C14.2584 25.0541 17.3584 30.228 20.5808 35.6075C23.828 30.1879 26.928 25.0131 30.1336 19.6633C27.516 19.6625 25.2216 19.6625 22.656 19.6529ZM35.9112 38.7305C31.4984 38.7305 27.0864 38.7305 22.4504 38.7305C25.7096 44.163 28.7992 49.3136 32.0064 54.6594C35.2392 49.2687 38.3432 44.0907 41.5568 38.7305C39.584 38.7305 37.8824 38.7305 35.9112 38.7305ZM36.9368 34.9121C35.5608 34.101 34.1944 33.2747 32.8008 32.4909C32.4888 32.3159 31.9656 32.0999 31.7392 32.2267C29.1712 33.6658 26.6424 35.1682 23.8368 36.8096C29.4072 36.8096 34.6048 36.8096 40.1416 36.8096C38.9272 36.0949 38.0128 35.5561 36.9368 34.9121ZM38.4464 30.8969C36.6992 27.9908 34.9512 25.0838 33.204 22.1776C32.9296 24.3193 33.0424 26.3767 32.8928 28.4164C32.7816 29.9381 33.256 30.8479 34.708 31.5707C36.7064 32.5648 38.5688 33.8087 40.4888 34.945C40.5632 34.8679 40.6376 34.7908 40.712 34.7137C39.9856 33.4979 39.2592 32.283 38.4464 30.8969ZM31.0984 24.198C31.0984 23.5347 31.0984 22.8714 31.0984 22.2089C30.9984 22.1873 30.8984 22.1648 30.7984 22.1431C28.288 26.3349 25.7784 30.5267 23.2688 34.7193C23.3504 34.7932 23.432 34.8663 23.5128 34.9402C25.9352 33.5084 28.3704 32.0934 30.7616 30.6159C31.0048 30.4657 31.0768 29.9405 31.0832 29.5872C31.116 27.8727 31.0976 26.1582 31.0984 24.198ZM16.176 43.417C18.4064 43.417 20.6368 43.417 23.1272 43.417C22.128 41.77 21.2672 40.351 20.376 38.8831C17.8696 40.3655 15.5288 41.7507 13.1872 43.1359C13.2144 43.2299 13.2416 43.323 13.2696 43.4162C14.1504 43.417 15.0312 43.417 16.176 43.417ZM41.7592 41.9659C41.5224 42.3955 41.2864 42.8243 41.0336 43.2821C44.3944 43.2821 47.5752 43.2821 51.1008 43.2821C48.424 41.7137 46.064 40.3309 43.6296 38.9047C42.9864 39.9591 42.4232 40.8818 41.7592 41.9659ZM46.9912 33.5799C46.1832 34.7852 45.3752 35.9905 44.4992 37.2955C46.9456 38.7538 49.24 40.1205 51.5344 41.4873C51.6008 41.4303 51.668 41.3725 51.7344 41.3154C50.2024 38.7787 48.6704 36.2411 46.9912 33.5799ZM13.3904 39.4315C13.0224 40.074 12.6552 40.7172 12.288 41.3596C12.3552 41.4006 12.4224 41.4415 12.4896 41.4825C14.788 40.1045 17.0864 38.7265 19.4496 37.3107C18.6312 35.9544 17.9024 34.7475 17.0576 33.347C15.7952 35.4493 14.648 37.3621 13.3904 39.4315ZM30.6112 10.7425C29.2208 13.0632 27.8304 15.384 26.4008 17.7714C28.0768 17.7714 29.532 17.7714 31.0776 17.7714C31.0776 15.3984 31.0816 13.1323 31.0616 10.8653C31.0608 10.769 30.8296 10.675 30.6112 10.7425ZM32.9664 12.1036C32.9664 13.9771 32.9664 15.8505 32.9664 17.8003C34.5256 17.8003 35.976 17.8003 37.6336 17.8003C36.1168 15.27 34.6728 12.8633 33.2296 10.4558C33.1416 10.4783 33.0544 10.5008 32.9664 10.5224C32.9664 10.977 32.9664 11.4315 32.9664 12.1036Z" fill="#C0CAF5"/>
</g>
<defs>
<clipPath id="clip0_18_2">
<rect width="64" height="64" rx="32" fill="white"/>
</clipPath>
</defs>
</svg>
